<svg xmlns="http://www.w3.org/2000/svg" xmlns:xlink="http://www.w3.org/1999/xlink" width="120" zoomAndPan="magnify" viewBox="0 0 90 30.000001" height="40" preserveAspectRatio="xMidYMid meet" version="1.0"><defs><g/><clipPath id="cb26761238"><path d="M 1.453125 0 L 88.546875 0 L 88.546875 29.03125 L 1.453125 29.03125 Z M 1.453125 0 " clip-rule="nonzero"/></clipPath></defs><g clip-path="url(#cb26761238)"><path fill="#ffffff" d="M 1.453125 0 L 88.546875 0 L 88.546875 36.289062 L 1.453125 36.289062 Z M 1.453125 0 " fill-opacity="1" fill-rule="nonzero"/><path fill="#ffffff" d="M 1.453125 0 L 88.546875 0 L 88.546875 29.03125 L 1.453125 29.03125 Z M 1.453125 0 " fill-opacity="1" fill-rule="nonzero"/><path fill="#ffffff" d="M 1.453125 0 L 88.546875 0 L 88.546875 29.03125 L 1.453125 29.03125 Z M 1.453125 0 " fill-opacity="1" fill-rule="nonzero"/></g><g fill="#000000" fill-opacity="1"><g transform="translate(4.354837, 19.553806)"><g><path d="M 6.5 0 L 1.125 0 L 1.125 -9.90625 L 2.09375 -9.90625 L 2.09375 -0.84375 L 6.5625 -0.84375 Z M 6.5 0 "/></g></g></g><g fill="#000000" fill-opacity="1"><g transform="translate(11.563051, 19.553806)"><g><path d="M 2.65625 -0.90625 C 2.863281 -0.832031 3.191406 -0.796875 3.640625 -0.796875 C 4.097656 -0.796875 4.6875 -0.976562 5.40625 -1.34375 L 5.40625 -7.078125 L 6.328125 -7.15625 L 6.328125 0 L 5.40625 0 L 5.40625 -0.765625 C 4.707031 -0.222656 3.992188 0.046875 3.265625 0.046875 C 2.359375 0.046875 1.703125 -0.222656 1.296875 -0.765625 C 1.085938 -1.023438 0.984375 -1.394531 0.984375 -1.875 L 0.984375 -7.078125 L 1.90625 -7.15625 L 1.90625 -2.109375 C 1.90625 -1.523438 2.15625 -1.125 2.65625 -0.90625 Z M 2.65625 -0.90625 "/></g></g></g><g fill="#000000" fill-opacity="1"><g transform="translate(18.884563, 19.553806)"><g><path d="M 3.484375 -6.296875 C 2.953125 -6.265625 2.378906 -6.09375 1.765625 -5.78125 L 1.765625 0 L 0.84375 0 L 0.84375 -7.078125 L 1.765625 -7.15625 L 1.765625 -6.359375 C 2.398438 -6.835938 3.015625 -7.09375 3.609375 -7.125 C 4.609375 -7.125 5.296875 -6.875 5.671875 -6.375 C 6.390625 -6.84375 7.082031 -7.09375 7.75 -7.125 C 8.332031 -7.125 8.78125 -7.050781 9.09375 -6.90625 C 9.40625 -6.769531 9.660156 -6.570312 9.859375 -6.3125 C 10.066406 -6.050781 10.171875 -5.679688 10.171875 -5.203125 L 10.171875 0 L 9.25 0 L 9.25 -4.96875 C 9.25 -5.320312 9.164062 -5.59375 9 -5.78125 C 8.707031 -6.125 8.289062 -6.296875 7.75 -6.296875 C 7.1875 -6.296875 6.585938 -6.128906 5.953125 -5.796875 C 5.992188 -5.597656 6.015625 -5.398438 6.015625 -5.203125 L 6.015625 0 L 5.09375 0 L 5.09375 -4.96875 C 5.09375 -5.320312 5.019531 -5.59375 4.875 -5.78125 C 4.570312 -6.125 4.109375 -6.296875 3.484375 -6.296875 Z M 3.484375 -6.296875 "/></g></g></g><g fill="#000000" fill-opacity="1"><g transform="translate(30.043852, 19.553806)"><g><path d="M 2.0625 -7.15625 L 2.0625 0 L 1.140625 0 L 1.140625 -7.078125 Z M 1.5625 -8.96875 C 1.375 -8.96875 1.226562 -9.03125 1.125 -9.15625 C 1.03125 -9.28125 0.984375 -9.4375 0.984375 -9.625 C 0.984375 -9.8125 1.035156 -9.960938 1.140625 -10.078125 C 1.253906 -10.203125 1.40625 -10.265625 1.59375 -10.265625 C 1.78125 -10.265625 1.929688 -10.203125 2.046875 -10.078125 C 2.171875 -9.960938 2.234375 -9.800781 2.234375 -9.59375 C 2.234375 -9.382812 2.171875 -9.226562 2.046875 -9.125 C 1.921875 -9.019531 1.757812 -8.96875 1.5625 -8.96875 Z M 1.5625 -8.96875 "/></g></g></g><g fill="#000000" fill-opacity="1"><g transform="translate(33.131065, 19.553806)"><g><path d="M 1.765625 -6.296875 C 2.472656 -6.816406 3.144531 -7.09375 3.78125 -7.125 C 4.351562 -7.125 4.796875 -7.050781 5.109375 -6.90625 C 5.421875 -6.769531 5.675781 -6.570312 5.875 -6.3125 C 6.082031 -6.050781 6.1875 -5.679688 6.1875 -5.203125 L 6.1875 0 L 5.265625 0 L 5.265625 -4.96875 C 5.265625 -5.320312 5.191406 -5.59375 5.046875 -5.78125 C 4.742188 -6.125 4.28125 -6.296875 3.65625 -6.296875 C 3.0625 -6.265625 2.429688 -6.070312 1.765625 -5.71875 L 1.765625 0 L 0.84375 0 L 0.84375 -7.078125 L 1.765625 -7.15625 Z M 1.765625 -6.296875 "/></g></g></g><g fill="#000000" fill-opacity="1"><g transform="translate(40.310958, 19.553806)"><g><path d="M 1.703125 -3.25 C 1.703125 -1.59375 2.492188 -0.765625 4.078125 -0.765625 C 4.742188 -0.765625 5.359375 -0.851562 5.921875 -1.03125 C 6.054688 -1.082031 6.15625 -1.117188 6.21875 -1.140625 L 6.421875 -0.390625 C 6.097656 -0.191406 5.5 -0.0507812 4.625 0.03125 C 4.382812 0.0507812 4.125 0.0625 3.84375 0.0625 C 3.050781 0.0625 2.394531 -0.132812 1.875 -0.53125 C 1.144531 -1.070312 0.78125 -1.96875 0.78125 -3.21875 C 0.78125 -4.476562 1.109375 -5.445312 1.765625 -6.125 C 2.421875 -6.800781 3.210938 -7.140625 4.140625 -7.140625 C 5.078125 -7.140625 5.78125 -6.835938 6.25 -6.234375 C 6.613281 -5.742188 6.796875 -5.101562 6.796875 -4.3125 C 6.796875 -4.125 6.785156 -3.925781 6.765625 -3.71875 L 1.71875 -3.71875 C 1.707031 -3.644531 1.703125 -3.566406 1.703125 -3.484375 Z M 4.203125 -6.25 C 3.617188 -6.25 3.117188 -6.070312 2.703125 -5.71875 C 2.285156 -5.375 2 -4.921875 1.84375 -4.359375 L 5.953125 -4.359375 C 5.910156 -5.410156 5.507812 -6.019531 4.75 -6.1875 C 4.570312 -6.226562 4.390625 -6.25 4.203125 -6.25 Z M 4.203125 -6.25 "/></g></g></g><g fill="#000000" fill-opacity="1"><g transform="translate(47.618302, 19.553806)"><g><path d="M 6.59375 -9.65625 L 6.421875 -8.84375 C 5.703125 -9.007812 5.085938 -9.09375 4.578125 -9.09375 C 2.742188 -9.09375 1.828125 -8.535156 1.828125 -7.421875 C 1.828125 -6.992188 1.960938 -6.664062 2.234375 -6.4375 C 2.503906 -6.207031 2.84375 -6.019531 3.25 -5.875 C 3.65625 -5.726562 4.09375 -5.597656 4.5625 -5.484375 C 5.039062 -5.367188 5.484375 -5.210938 5.890625 -5.015625 C 6.835938 -4.535156 7.3125 -3.8125 7.3125 -2.84375 C 7.3125 -1.875 6.953125 -1.140625 6.234375 -0.640625 C 5.609375 -0.203125 4.785156 0.015625 3.765625 0.015625 C 2.503906 0.015625 1.4375 -0.269531 0.5625 -0.84375 L 0.9375 -1.578125 C 1.1875 -1.390625 1.546875 -1.21875 2.015625 -1.0625 C 2.492188 -0.90625 2.953125 -0.828125 3.390625 -0.828125 C 4.265625 -0.828125 4.953125 -0.972656 5.453125 -1.265625 C 6.054688 -1.609375 6.359375 -2.109375 6.359375 -2.765625 C 6.359375 -3.242188 6.222656 -3.617188 5.953125 -3.890625 C 5.679688 -4.160156 5.335938 -4.375 4.921875 -4.53125 C 4.515625 -4.695312 4.078125 -4.835938 3.609375 -4.953125 C 3.140625 -5.078125 2.703125 -5.226562 2.296875 -5.40625 C 1.335938 -5.820312 0.859375 -6.441406 0.859375 -7.265625 C 0.859375 -8.085938 1.140625 -8.738281 1.703125 -9.21875 C 2.273438 -9.695312 3.082031 -9.9375 4.125 -9.9375 C 4.925781 -9.9375 5.75 -9.84375 6.59375 -9.65625 Z M 6.59375 -9.65625 "/></g></g></g><g fill="#000000" fill-opacity="1"><g transform="translate(55.506273, 19.553806)"><g><path d="M 5.609375 -0.984375 C 5.296875 -0.679688 4.945312 -0.453125 4.5625 -0.296875 C 4.175781 -0.140625 3.847656 -0.0507812 3.578125 -0.03125 C 3.304688 -0.0078125 3.035156 0 2.765625 0 C 2.503906 0 2.21875 -0.0234375 1.90625 -0.078125 L 1.90625 3.46875 L 0.984375 3.546875 L 0.984375 -6.703125 C 1.191406 -6.773438 1.507812 -6.875 1.9375 -7 C 2.375 -7.132812 2.832031 -7.203125 3.3125 -7.203125 C 3.800781 -7.203125 4.222656 -7.160156 4.578125 -7.078125 C 4.929688 -7.003906 5.257812 -6.851562 5.5625 -6.625 C 6.269531 -6.070312 6.625 -5.164062 6.625 -3.90625 C 6.625 -2.644531 6.285156 -1.671875 5.609375 -0.984375 Z M 1.90625 -0.796875 C 2.1875 -0.722656 2.488281 -0.6875 2.8125 -0.6875 C 3.738281 -0.6875 4.453125 -0.957031 4.953125 -1.5 C 5.453125 -2.050781 5.703125 -2.820312 5.703125 -3.8125 C 5.703125 -4.8125 5.445312 -5.523438 4.9375 -5.953125 C 4.582031 -6.242188 4.125 -6.390625 3.5625 -6.390625 C 3 -6.390625 2.445312 -6.304688 1.90625 -6.140625 Z M 1.90625 -0.796875 "/></g></g></g><g fill="#000000" fill-opacity="1"><g transform="translate(62.841938, 19.553806)"><g><path d="M 0.71875 -6.3125 C 1.75 -6.820312 2.648438 -7.09375 3.421875 -7.125 C 4.035156 -7.125 4.507812 -7.046875 4.84375 -6.890625 C 5.175781 -6.734375 5.445312 -6.515625 5.65625 -6.234375 C 5.863281 -5.953125 5.96875 -5.5625 5.96875 -5.0625 L 5.96875 0 L 5.046875 0 L 5.046875 -0.53125 C 3.753906 -0.132812 2.925781 0.0625 2.5625 0.0625 C 2.539062 0.0625 2.523438 0.0625 2.515625 0.0625 C 1.671875 0.0625 1.09375 -0.195312 0.78125 -0.71875 C 0.664062 -0.90625 0.597656 -1.085938 0.578125 -1.265625 C 0.566406 -1.453125 0.5625 -1.609375 0.5625 -1.734375 C 0.5625 -2.066406 0.691406 -2.367188 0.953125 -2.640625 C 1.222656 -2.910156 1.539062 -3.09375 1.90625 -3.1875 C 2.53125 -3.34375 3.578125 -3.484375 5.046875 -3.609375 L 5.046875 -4.75 C 5.046875 -5.78125 4.507812 -6.296875 3.4375 -6.296875 C 2.6875 -6.296875 1.867188 -6.078125 0.984375 -5.640625 Z M 1.4375 -1.609375 C 1.4375 -0.929688 1.898438 -0.59375 2.828125 -0.59375 C 3.578125 -0.59375 4.316406 -0.753906 5.046875 -1.078125 L 5.046875 -3.09375 C 3.578125 -2.882812 2.671875 -2.726562 2.328125 -2.625 C 1.734375 -2.425781 1.4375 -2.085938 1.4375 -1.609375 Z M 1.4375 -1.609375 "/></g></g></g><g fill="#000000" fill-opacity="1"><g transform="translate(69.384563, 19.553806)"><g><path d="M 5.53125 -6.125 C 5.144531 -6.25 4.75 -6.3125 4.34375 -6.3125 C 3.519531 -6.3125 2.859375 -6.046875 2.359375 -5.515625 C 1.867188 -4.992188 1.625 -4.25 1.625 -3.28125 C 1.625 -1.601562 2.40625 -0.765625 3.96875 -0.765625 C 4.582031 -0.765625 5.222656 -0.867188 5.890625 -1.078125 C 6.023438 -1.109375 6.101562 -1.132812 6.125 -1.15625 L 6.359375 -0.390625 C 6.023438 -0.191406 5.425781 -0.0507812 4.5625 0.03125 C 4.3125 0.0507812 4.050781 0.0625 3.78125 0.0625 C 2.976562 0.0625 2.316406 -0.132812 1.796875 -0.53125 C 1.066406 -1.082031 0.703125 -1.984375 0.703125 -3.234375 C 0.703125 -4.492188 1.039062 -5.460938 1.71875 -6.140625 C 2.394531 -6.816406 3.265625 -7.15625 4.328125 -7.15625 C 4.671875 -7.15625 5.03125 -7.109375 5.40625 -7.015625 C 5.789062 -6.921875 6.085938 -6.78125 6.296875 -6.59375 L 6.296875 -4.75 L 5.609375 -4.640625 Z M 5.53125 -6.125 "/></g></g></g><g fill="#000000" fill-opacity="1"><g transform="translate(76.309554, 19.553806)"><g><path d="M 1.703125 -3.25 C 1.703125 -1.59375 2.492188 -0.765625 4.078125 -0.765625 C 4.742188 -0.765625 5.359375 -0.851562 5.921875 -1.03125 C 6.054688 -1.082031 6.15625 -1.117188 6.21875 -1.140625 L 6.421875 -0.390625 C 6.097656 -0.191406 5.5 -0.0507812 4.625 0.03125 C 4.382812 0.0507812 4.125 0.0625 3.84375 0.0625 C 3.050781 0.0625 2.394531 -0.132812 1.875 -0.53125 C 1.144531 -1.070312 0.78125 -1.96875 0.78125 -3.21875 C 0.78125 -4.476562 1.109375 -5.445312 1.765625 -6.125 C 2.421875 -6.800781 3.210938 -7.140625 4.140625 -7.140625 C 5.078125 -7.140625 5.78125 -6.835938 6.25 -6.234375 C 6.613281 -5.742188 6.796875 -5.101562 6.796875 -4.3125 C 6.796875 -4.125 6.785156 -3.925781 6.765625 -3.71875 L 1.71875 -3.71875 C 1.707031 -3.644531 1.703125 -3.566406 1.703125 -3.484375 Z M 4.203125 -6.25 C 3.617188 -6.25 3.117188 -6.070312 2.703125 -5.71875 C 2.285156 -5.375 2 -4.921875 1.84375 -4.359375 L 5.953125 -4.359375 C 5.910156 -5.410156 5.507812 -6.019531 4.75 -6.1875 C 4.570312 -6.226562 4.390625 -6.25 4.203125 -6.25 Z M 4.203125 -6.25 "/></g></g></g><g fill="#000000" fill-opacity="1"><g transform="translate(83.616898, 19.553806)"><g><path d="M 0.921875 0.109375 C 0.765625 0.109375 0.648438 0.0625 0.578125 -0.03125 C 0.515625 -0.125 0.484375 -0.253906 0.484375 -0.421875 C 0.484375 -0.585938 0.523438 -0.722656 0.609375 -0.828125 C 0.703125 -0.929688 0.835938 -0.984375 1.015625 -0.984375 C 1.316406 -0.984375 1.46875 -0.789062 1.46875 -0.40625 C 1.46875 -0.25 1.414062 -0.125 1.3125 -0.03125 C 1.21875 0.0625 1.085938 0.109375 0.921875 0.109375 Z M 0.921875 0.109375 "/></g></g></g></svg>