<svg xmlns="http://www.w3.org/2000/svg" xmlns:xlink="http://www.w3.org/1999/xlink" width="120" zoomAndPan="magnify" viewBox="0 0 90 30.000001" height="40" preserveAspectRatio="xMidYMid meet" version="1.0"><defs><g/></defs><g fill="#000000" fill-opacity="1"><g transform="translate(1.451611, 18.309389)"><g><path d="M 6.96875 0 L 1.21875 0 L 1.21875 -10.625 L 2.25 -10.625 L 2.25 -0.90625 L 7.046875 -0.90625 Z M 6.96875 0 "/></g></g></g><g fill="#000000" fill-opacity="1"><g transform="translate(9.174697, 18.309389)"><g><path d="M 2.859375 -0.96875 C 3.078125 -0.882812 3.425781 -0.84375 3.90625 -0.84375 C 4.394531 -0.84375 5.023438 -1.039062 5.796875 -1.4375 L 5.796875 -7.578125 L 6.78125 -7.65625 L 6.78125 0 L 5.796875 0 L 5.796875 -0.8125 C 5.046875 -0.238281 4.28125 0.046875 3.5 0.046875 C 2.53125 0.046875 1.828125 -0.238281 1.390625 -0.8125 C 1.171875 -1.101562 1.0625 -1.5 1.0625 -2 L 1.0625 -7.578125 L 2.046875 -7.65625 L 2.046875 -2.265625 C 2.046875 -1.628906 2.316406 -1.195312 2.859375 -0.96875 Z M 2.859375 -0.96875 "/></g></g></g><g fill="#000000" fill-opacity="1"><g transform="translate(17.019173, 18.309389)"><g><path d="M 3.734375 -6.75 C 3.160156 -6.71875 2.546875 -6.53125 1.890625 -6.1875 L 1.890625 0 L 0.90625 0 L 0.90625 -7.578125 L 1.890625 -7.65625 L 1.890625 -6.8125 C 2.566406 -7.320312 3.226562 -7.59375 3.875 -7.625 C 4.945312 -7.625 5.679688 -7.359375 6.078125 -6.828125 C 6.847656 -7.328125 7.59375 -7.59375 8.3125 -7.625 C 8.925781 -7.625 9.398438 -7.546875 9.734375 -7.390625 C 10.066406 -7.242188 10.34375 -7.03125 10.5625 -6.75 C 10.78125 -6.476562 10.890625 -6.085938 10.890625 -5.578125 L 10.890625 0 L 9.90625 0 L 9.90625 -5.328125 C 9.90625 -5.703125 9.820312 -5.988281 9.65625 -6.1875 C 9.332031 -6.5625 8.882812 -6.75 8.3125 -6.75 C 7.707031 -6.75 7.0625 -6.566406 6.375 -6.203125 C 6.425781 -6.003906 6.453125 -5.796875 6.453125 -5.578125 L 6.453125 0 L 5.46875 0 L 5.46875 -5.328125 C 5.46875 -5.703125 5.382812 -5.988281 5.21875 -6.1875 C 4.894531 -6.5625 4.398438 -6.75 3.734375 -6.75 Z M 3.734375 -6.75 "/></g></g></g><g fill="#000000" fill-opacity="1"><g transform="translate(28.975554, 18.309389)"><g><path d="M 2.21875 -7.65625 L 2.21875 0 L 1.234375 0 L 1.234375 -7.578125 Z M 1.671875 -9.625 C 1.472656 -9.625 1.320312 -9.6875 1.21875 -9.8125 C 1.113281 -9.945312 1.0625 -10.113281 1.0625 -10.3125 C 1.0625 -10.519531 1.117188 -10.6875 1.234375 -10.8125 C 1.347656 -10.9375 1.503906 -11 1.703125 -11 C 1.910156 -11 2.078125 -10.9375 2.203125 -10.8125 C 2.328125 -10.6875 2.390625 -10.507812 2.390625 -10.28125 C 2.390625 -10.0625 2.320312 -9.894531 2.1875 -9.78125 C 2.050781 -9.675781 1.878906 -9.625 1.671875 -9.625 Z M 1.671875 -9.625 "/></g></g></g><g fill="#000000" fill-opacity="1"><g transform="translate(32.283282, 18.309389)"><g><path d="M 1.890625 -6.75 C 2.648438 -7.300781 3.367188 -7.59375 4.046875 -7.625 C 4.660156 -7.625 5.132812 -7.546875 5.46875 -7.390625 C 5.8125 -7.242188 6.085938 -7.03125 6.296875 -6.75 C 6.515625 -6.476562 6.625 -6.085938 6.625 -5.578125 L 6.625 0 L 5.640625 0 L 5.640625 -5.328125 C 5.640625 -5.703125 5.5625 -5.988281 5.40625 -6.1875 C 5.082031 -6.5625 4.585938 -6.75 3.921875 -6.75 C 3.273438 -6.71875 2.597656 -6.507812 1.890625 -6.125 L 1.890625 0 L 0.90625 0 L 0.90625 -7.578125 L 1.890625 -7.65625 Z M 1.890625 -6.75 "/></g></g></g><g fill="#000000" fill-opacity="1"><g transform="translate(39.976024, 18.309389)"><g><path d="M 1.828125 -3.484375 C 1.828125 -1.703125 2.675781 -0.8125 4.375 -0.8125 C 5.09375 -0.8125 5.75 -0.910156 6.34375 -1.109375 C 6.488281 -1.160156 6.59375 -1.203125 6.65625 -1.234375 L 6.890625 -0.421875 C 6.535156 -0.210938 5.894531 -0.0625 4.96875 0.03125 C 4.695312 0.0507812 4.414062 0.0625 4.125 0.0625 C 3.28125 0.0625 2.570312 -0.148438 2 -0.578125 C 1.21875 -1.148438 0.828125 -2.109375 0.828125 -3.453125 C 0.828125 -4.804688 1.175781 -5.84375 1.875 -6.5625 C 2.582031 -7.28125 3.4375 -7.640625 4.4375 -7.640625 C 5.445312 -7.640625 6.203125 -7.316406 6.703125 -6.671875 C 7.085938 -6.160156 7.28125 -5.476562 7.28125 -4.625 C 7.28125 -4.425781 7.269531 -4.210938 7.25 -3.984375 L 1.828125 -3.984375 C 1.828125 -3.910156 1.828125 -3.828125 1.828125 -3.734375 Z M 4.5 -6.703125 C 3.875 -6.703125 3.335938 -6.507812 2.890625 -6.125 C 2.453125 -5.75 2.144531 -5.265625 1.96875 -4.671875 L 6.390625 -4.671875 C 6.335938 -5.796875 5.898438 -6.445312 5.078125 -6.625 C 4.898438 -6.675781 4.707031 -6.703125 4.5 -6.703125 Z M 4.5 -6.703125 "/></g></g></g><g fill="#000000" fill-opacity="1"><g transform="translate(47.80532, 18.309389)"><g><path d="M 7.0625 -10.34375 L 6.890625 -9.484375 C 6.109375 -9.648438 5.445312 -9.734375 4.90625 -9.734375 C 2.9375 -9.734375 1.953125 -9.140625 1.953125 -7.953125 C 1.953125 -7.492188 2.097656 -7.140625 2.390625 -6.890625 C 2.679688 -6.648438 3.046875 -6.453125 3.484375 -6.296875 C 3.921875 -6.140625 4.390625 -6 4.890625 -5.875 C 5.398438 -5.75 5.875 -5.582031 6.3125 -5.375 C 7.332031 -4.863281 7.84375 -4.085938 7.84375 -3.046875 C 7.84375 -2.003906 7.453125 -1.21875 6.671875 -0.6875 C 6.003906 -0.21875 5.125 0.015625 4.03125 0.015625 C 2.675781 0.015625 1.535156 -0.289062 0.609375 -0.90625 L 1 -1.6875 C 1.269531 -1.488281 1.65625 -1.304688 2.15625 -1.140625 C 2.664062 -0.972656 3.160156 -0.890625 3.640625 -0.890625 C 4.566406 -0.890625 5.300781 -1.039062 5.84375 -1.34375 C 6.488281 -1.71875 6.8125 -2.253906 6.8125 -2.953125 C 6.8125 -3.472656 6.664062 -3.875 6.375 -4.15625 C 6.09375 -4.445312 5.726562 -4.679688 5.28125 -4.859375 C 4.84375 -5.035156 4.367188 -5.1875 3.859375 -5.3125 C 3.359375 -5.4375 2.890625 -5.597656 2.453125 -5.796875 C 1.429688 -6.242188 0.921875 -6.90625 0.921875 -7.78125 C 0.921875 -8.664062 1.222656 -9.363281 1.828125 -9.875 C 2.441406 -10.394531 3.304688 -10.65625 4.421875 -10.65625 C 5.273438 -10.65625 6.15625 -10.550781 7.0625 -10.34375 Z M 7.0625 -10.34375 "/></g></g></g><g fill="#000000" fill-opacity="1"><g transform="translate(56.256717, 18.309389)"><g><path d="M 6.015625 -1.0625 C 5.671875 -0.726562 5.296875 -0.476562 4.890625 -0.3125 C 4.484375 -0.144531 4.132812 -0.0507812 3.84375 -0.03125 C 3.550781 -0.0078125 3.257812 0 2.96875 0 C 2.6875 0 2.378906 -0.0234375 2.046875 -0.078125 L 2.046875 3.71875 L 1.0625 3.796875 L 1.0625 -7.1875 C 1.28125 -7.257812 1.617188 -7.363281 2.078125 -7.5 C 2.546875 -7.644531 3.039062 -7.71875 3.5625 -7.71875 C 4.082031 -7.71875 4.53125 -7.675781 4.90625 -7.59375 C 5.289062 -7.507812 5.644531 -7.34375 5.96875 -7.09375 C 6.71875 -6.507812 7.09375 -5.539062 7.09375 -4.1875 C 7.09375 -2.832031 6.734375 -1.789062 6.015625 -1.0625 Z M 2.046875 -0.84375 C 2.347656 -0.78125 2.671875 -0.75 3.015625 -0.75 C 4.003906 -0.75 4.765625 -1.039062 5.296875 -1.625 C 5.835938 -2.207031 6.109375 -3.03125 6.109375 -4.09375 C 6.109375 -5.15625 5.835938 -5.914062 5.296875 -6.375 C 4.910156 -6.6875 4.414062 -6.84375 3.8125 -6.84375 C 3.207031 -6.84375 2.617188 -6.753906 2.046875 -6.578125 Z M 2.046875 -0.84375 "/></g></g></g><g fill="#000000" fill-opacity="1"><g transform="translate(64.116357, 18.309389)"><g><path d="M 0.78125 -6.765625 C 1.875 -7.304688 2.835938 -7.59375 3.671875 -7.625 C 4.328125 -7.625 4.832031 -7.539062 5.1875 -7.375 C 5.550781 -7.207031 5.84375 -6.972656 6.0625 -6.671875 C 6.289062 -6.378906 6.40625 -5.96875 6.40625 -5.4375 L 6.40625 0 L 5.421875 0 L 5.421875 -0.578125 C 4.035156 -0.148438 3.144531 0.0625 2.75 0.0625 C 2.726562 0.0625 2.710938 0.0625 2.703125 0.0625 C 1.785156 0.0625 1.160156 -0.21875 0.828125 -0.78125 C 0.710938 -0.976562 0.644531 -1.171875 0.625 -1.359375 C 0.613281 -1.554688 0.609375 -1.71875 0.609375 -1.84375 C 0.609375 -2.207031 0.75 -2.535156 1.03125 -2.828125 C 1.3125 -3.117188 1.648438 -3.3125 2.046875 -3.40625 C 2.710938 -3.582031 3.835938 -3.738281 5.421875 -3.875 L 5.421875 -5.09375 C 5.421875 -6.195312 4.84375 -6.75 3.6875 -6.75 C 2.875 -6.75 1.992188 -6.507812 1.046875 -6.03125 Z M 1.53125 -1.734375 C 1.53125 -1.003906 2.03125 -0.640625 3.03125 -0.640625 C 3.832031 -0.640625 4.628906 -0.8125 5.421875 -1.15625 L 5.421875 -3.328125 C 3.835938 -3.097656 2.859375 -2.925781 2.484375 -2.8125 C 1.847656 -2.601562 1.53125 -2.242188 1.53125 -1.734375 Z M 1.53125 -1.734375 "/></g></g></g><g fill="#000000" fill-opacity="1"><g transform="translate(71.126312, 18.309389)"><g><path d="M 5.9375 -6.5625 C 5.519531 -6.695312 5.09375 -6.765625 4.65625 -6.765625 C 3.78125 -6.765625 3.078125 -6.476562 2.546875 -5.90625 C 2.015625 -5.34375 1.75 -4.546875 1.75 -3.515625 C 1.75 -1.710938 2.582031 -0.8125 4.25 -0.8125 C 4.914062 -0.8125 5.601562 -0.925781 6.3125 -1.15625 C 6.457031 -1.195312 6.539062 -1.226562 6.5625 -1.25 L 6.8125 -0.421875 C 6.457031 -0.210938 5.816406 -0.0625 4.890625 0.03125 C 4.617188 0.0507812 4.335938 0.0625 4.046875 0.0625 C 3.191406 0.0625 2.484375 -0.148438 1.921875 -0.578125 C 1.148438 -1.160156 0.765625 -2.125 0.765625 -3.46875 C 0.765625 -4.8125 1.125 -5.84375 1.84375 -6.5625 C 2.5625 -7.289062 3.492188 -7.65625 4.640625 -7.65625 C 5.003906 -7.65625 5.390625 -7.609375 5.796875 -7.515625 C 6.210938 -7.421875 6.53125 -7.269531 6.75 -7.0625 L 6.75 -5.078125 L 6.015625 -4.96875 Z M 5.9375 -6.5625 "/></g></g></g><g fill="#000000" fill-opacity="1"><g transform="translate(78.545944, 18.309389)"><g><path d="M 1.828125 -3.484375 C 1.828125 -1.703125 2.675781 -0.8125 4.375 -0.8125 C 5.09375 -0.8125 5.75 -0.910156 6.34375 -1.109375 C 6.488281 -1.160156 6.59375 -1.203125 6.65625 -1.234375 L 6.890625 -0.421875 C 6.535156 -0.210938 5.894531 -0.0625 4.96875 0.03125 C 4.695312 0.0507812 4.414062 0.0625 4.125 0.0625 C 3.28125 0.0625 2.570312 -0.148438 2 -0.578125 C 1.21875 -1.148438 0.828125 -2.109375 0.828125 -3.453125 C 0.828125 -4.804688 1.175781 -5.84375 1.875 -6.5625 C 2.582031 -7.28125 3.4375 -7.640625 4.4375 -7.640625 C 5.445312 -7.640625 6.203125 -7.316406 6.703125 -6.671875 C 7.085938 -6.160156 7.28125 -5.476562 7.28125 -4.625 C 7.28125 -4.425781 7.269531 -4.210938 7.25 -3.984375 L 1.828125 -3.984375 C 1.828125 -3.910156 1.828125 -3.828125 1.828125 -3.734375 Z M 4.5 -6.703125 C 3.875 -6.703125 3.335938 -6.507812 2.890625 -6.125 C 2.453125 -5.75 2.144531 -5.265625 1.96875 -4.671875 L 6.390625 -4.671875 C 6.335938 -5.796875 5.898438 -6.445312 5.078125 -6.625 C 4.898438 -6.675781 4.707031 -6.703125 4.5 -6.703125 Z M 4.5 -6.703125 "/></g></g></g><g fill="#000000" fill-opacity="1"><g transform="translate(86.375241, 18.309389)"><g><path d="M 1 0.125 C 0.832031 0.125 0.707031 0.0703125 0.625 -0.03125 C 0.550781 -0.132812 0.515625 -0.273438 0.515625 -0.453125 C 0.515625 -0.640625 0.5625 -0.785156 0.65625 -0.890625 C 0.75 -1.003906 0.894531 -1.0625 1.09375 -1.0625 C 1.414062 -1.0625 1.578125 -0.851562 1.578125 -0.4375 C 1.578125 -0.269531 1.523438 -0.132812 1.421875 -0.03125 C 1.316406 0.0703125 1.175781 0.125 1 0.125 Z M 1 0.125 "/></g></g></g></svg>